HIERARCHY
ROOT Hips
{
	OFFSET 0.000000 0.000000 0.000000
	CHANNELS 6 Xposition Yposition Zposition Yrotation Xrotation Zrotation
	JOINT Chest
	{
		OFFSET 0.000000 -0.009281 11.569106
		CHANNELS 3 Yrotation Xrotation Zrotation
		JOINT Chest2
		{
			OFFSET -0.000000 0.016865 9.269641
			CHANNELS 3 Yrotation Xrotation Zrotation
			JOINT Chest3
			{
				OFFSET -0.000000 0.000001 8.374491
				CHANNELS 3 Yrotation Xrotation Zrotation
				JOINT Chest4
				{
					OFFSET -0.000000 0.000001 8.374493
					CHANNELS 3 Yrotation Xrotation Zrotation
					JOINT Neck
					{
						OFFSET -0.000000 0.000002 12.152554
						CHANNELS 3 Yrotation Xrotation Zrotation
						JOINT Head
						{
							OFFSET -0.000000 0.040101 7.802319
							CHANNELS 3 Yrotation Xrotation Zrotation
							End Site
							{
								OFFSET -0.000000 0.020947 14.853096
							}
						}
					}
					JOINT RightCollar
					{
						OFFSET 2.894404 0.000001 6.791374
						CHANNELS 3 Yrotation Xrotation Zrotation
						JOINT RightShoulder
						{
							OFFSET 13.574684 0.000001 0.000000
							CHANNELS 3 Yrotation Xrotation Zrotation
							JOINT RightElbow
							{
								OFFSET 23.923903 0.000002 0.000000
								CHANNELS 3 Yrotation Xrotation Zrotation
								JOINT RightWrist
								{
									OFFSET 19.846718 0.012767 0.000000
									CHANNELS 3 Yrotation Xrotation Zrotation
									End Site
									{
										OFFSET 14.973145 0.000001 0.000000
									}
								}
							}
						}
					}
					JOINT LeftCollar
					{
						OFFSET -2.894404 0.000001 6.791374
						CHANNELS 3 Yrotation Xrotation Zrotation
						JOINT LeftShoulder
						{
							OFFSET -13.574684 -0.000001 0.000000
							CHANNELS 3 Yrotation Xrotation Zrotation
							JOINT LeftElbow
							{
								OFFSET -23.923903 -0.000002 0.000000
								CHANNELS 3 Yrotation Xrotation Zrotation
								JOINT LeftWrist
								{
									OFFSET -19.846718 0.012763 0.000000
									CHANNELS 3 Yrotation Xrotation Zrotation
									End Site
									{
										OFFSET -14.973145 -0.000001 0.000000
									}
								}
							}
						}
					}
				}
			}
		}
	}
	JOINT RightHip
	{
		OFFSET 9.469263 0.004643 0.045487
		CHANNELS 3 Yrotation Xrotation Zrotation
		JOINT RightKnee
		{
			OFFSET 0.000000 0.002661 -40.478676
			CHANNELS 3 Yrotation Xrotation Zrotation
			JOINT RightAnkle
			{
				OFFSET 0.000000 0.049106 -35.224068
				CHANNELS 3 Yrotation Xrotation Zrotation
				JOINT RightToe
				{
					OFFSET -0.000001 12.539529 -6.151390
					CHANNELS 3 Yrotation Xrotation Zrotation
					End Site
					{
						OFFSET -0.000001 5.044994 -1.291870
					}
				}
			}
		}
	}
	JOINT LeftHip
	{
		OFFSET -9.469263 0.004641 0.045487
		CHANNELS 3 Yrotation Xrotation Zrotation
		JOINT LeftKnee
		{
			OFFSET 0.000000 0.002661 -40.478676
			CHANNELS 3 Yrotation Xrotation Zrotation
			JOINT LeftAnkle
			{
				OFFSET 0.000000 0.049106 -35.224068
				CHANNELS 3 Yrotation Xrotation Zrotation
				JOINT LeftToe
				{
					OFFSET -0.000001 12.539529 -6.151390
					CHANNELS 3 Yrotation Xrotation Zrotation
					End Site
					{
						OFFSET -0.000001 5.044994 -1.291870
					}
				}
			}
		}
	}
}
MOTION
Frames: 8
Frame Time: 0.016667
93.101509 13.590347 80.148270 -12.553227 -8.728952 -30.304405 6.312985 -0.171776 -3.392567 2.467240 0.203103 -1.765733 2.467240 0.203102 -1.765736 1.851033 0.145202 -1.325147 10.754282 -14.353026 -17.465707 13.457827 9.848057 -28.627073 8.336575 3.713511 -1.394952 54.052399 -9.618719 -2.466652 -9.912799 -32.304886 -11.614423 -9.041295 -8.189616 1.981215 -9.594618 -0.116541 -2.497779 -84.352665 -3.244266 -6.411459 -0.591230 9.041781 -5.264477 18.416024 5.110173 -28.186645 17.791087 1.807117 7.392709 6.836475 -5.686560 -10.456449 -0.449814 8.226790 0.042329 0.717985 0.949740 0.000724 9.107779 26.534161 -9.361705 -0.941064 -44.530955 9.561385 18.070288 -12.155286 -2.903162 -18.454278 31.076367 -5.238425 
93.796432 14.243840 80.122589 -12.092065 -8.690956 -28.958448 6.038803 -0.025789 -2.970797 2.354488 0.191769 -1.602588 2.354489 0.191770 -1.602589 1.766382 0.137657 -1.202699 10.930086 -14.259422 -17.855592 13.626367 10.025377 -29.293927 8.390956 3.055166 -1.348072 54.846375 -9.808060 0.603980 -10.096668 -32.462503 -11.626782 -9.701505 -8.463553 2.128619 -9.608887 0.057197 -2.317684 -84.323979 -2.078487 -5.475252 0.018658 8.591809 -4.520332 19.301227 5.098223 -28.644456 17.547430 1.701663 7.148717 6.944163 -5.840482 -10.844663 -0.861585 8.905336 -0.354013 0.712475 0.944451 -0.029592 8.352233 28.556645 -8.400715 -0.921795 -41.976478 9.969860 17.110853 -11.128198 -3.128428 -15.950657 26.318346 -3.802168 
94.481346 14.958232 80.125740 -11.715099 -8.490482 -27.769457 5.748736 -0.037078 -2.523110 2.236576 0.183774 -1.451584 2.236575 0.183774 -1.451588 1.677877 0.132521 -1.089379 11.077198 -14.211323 -18.192853 13.767401 10.117659 -29.871402 8.512526 2.437145 -1.456504 55.537692 -10.295986 3.873051 -10.246005 -32.982782 -11.560599 -10.378969 -8.950739 2.331428 -9.598460 0.144032 -2.243656 -84.278285 -0.920299 -4.418605 0.659449 8.477784 -3.787153 20.040424 5.188842 -29.166796 17.274474 1.329274 6.695740 7.018030 -5.990419 -10.990985 -1.193111 9.458174 -0.626766 0.673148 1.007991 -0.073166 7.641951 30.052429 -7.022148 -1.054724 -39.140133 9.868895 16.085302 -10.837961 -2.906964 -13.272727 22.197666 -2.722938 
95.128296 15.720222 80.152016 -11.290841 -8.329878 -26.474401 5.441994 0.064929 -2.336098 2.139563 0.181748 -1.332797 2.139564 0.181748 -1.332796 1.605077 0.131647 -1.000247 11.168202 -14.209356 -18.452967 13.839634 10.121067 -30.323970 8.652053 1.869728 -1.633835 56.114317 -11.135046 7.292304 -10.337802 -33.634003 -11.457936 -11.111861 -9.332172 2.551960 -9.601648 0.184285 -2.168494 -84.276434 0.178536 -3.208027 1.372722 8.620972 -3.012204 20.649562 5.362787 -29.717494 16.930193 0.943948 5.851993 7.044011 -6.042875 -10.768659 -1.429839 9.851936 -0.865636 0.600235 1.118931 -0.100547 6.813073 31.323640 -5.805031 -1.500200 -35.976129 9.635861 15.045566 -11.262150 -2.618779 -10.320387 18.741079 -1.847726 
95.751747 16.536829 80.197205 -10.908531 -8.220421 -25.130534 5.183246 0.238716 -2.351008 2.073167 0.179332 -1.251347 2.073167 0.179331 -1.251347 1.555250 0.130256 -0.939129 11.201176 -14.253500 -18.624440 13.844104 10.035982 -30.630619 8.876136 1.313241 -1.707632 56.519156 -12.179882 10.789432 -10.378507 -34.099781 -11.306088 -11.888714 -9.525662 2.796522 -9.610284 0.210391 -2.032272 -84.300913 1.284216 -1.892223 2.161373 8.761447 -2.112891 21.106705 5.632469 -30.172685 16.589240 0.455439 4.816416 7.091647 -5.903596 -10.395030 -1.573972 10.023855 -1.025023 0.476689 1.306132 -0.087599 5.941420 32.278275 -4.929651 -1.999050 -32.367433 9.560431 14.016223 -12.265835 -2.626193 -7.325502 15.786997 -1.127060 
96.358566 17.442757 80.262070 -10.648330 -8.034340 -23.884161 4.993133 0.343341 -2.403565 2.038342 0.160132 -1.188314 2.038343 0.160131 -1.188312 1.529075 0.116138 -0.891779 11.184594 -14.319438 -18.723616 13.786885 9.907300 -30.819852 9.093315 0.939221 -1.749734 56.774056 -13.295501 14.200244 -10.244342 -34.403929 -11.059849 -12.775870 -9.525083 3.134685 -9.639776 0.259933 -1.901904 -84.348875 2.471248 -0.514216 3.033672 8.807533 -1.066611 21.441733 5.831128 -30.403604 16.283021 -0.280924 3.804639 7.113303 -5.651664 -10.125349 -1.528841 9.966783 -0.881893 0.307104 1.604113 -0.095316 5.199013 32.688401 -4.389731 -2.441971 -28.285938 9.769076 12.769463 -13.828447 -2.865107 -4.291985 13.304022 -0.547786 
96.956825 18.429598 80.347076 -10.488327 -7.772262 -22.833268 4.872756 0.408747 -2.392069 2.019123 0.122966 -1.123357 2.019123 0.122966 -1.123356 1.514574 0.088515 -0.842937 11.136507 -14.395971 -18.771230 13.692060 9.757152 -30.924057 9.302534 0.703723 -1.762158 57.005063 -14.357597 17.518979 -9.939227 -34.700431 -10.806982 -13.736560 -9.336747 3.599032 -9.685845 0.358696 -1.761657 -84.380341 3.672329 0.988443 3.918112 8.883274 0.007735 21.684466 5.699703 -30.301916 16.053528 -1.237484 2.882196 7.071430 -5.357123 -9.770481 -1.371899 9.744060 -0.672372 0.131588 1.961119 -0.072485 4.761666 32.594062 -4.112881 -3.008857 -23.929597 10.391294 11.212230 -15.829489 -3.125872 -1.119900 11.317768 -0.126092 
97.537285 19.519220 80.440689 -10.323653 -7.296232 -22.063504 4.717075 0.346468 -2.269079 2.004067 0.063963 -1.045433 2.004067 0.063964 -1.045432 1.503165 0.044545 -0.784294 11.053861 -14.478142 -18.765549 13.553741 9.594271 -30.941443 9.383146 0.392057 -1.803045 57.282372 -15.419792 20.845049 -9.579850 -35.013274 -10.448461 -14.590333 -9.067083 4.106714 -9.743013 0.465714 -1.589917 -84.392608 4.892865 2.603542 4.736135 9.107944 0.983810 21.829973 5.150730 -29.855279 15.743661 -2.475350 2.033844 6.992211 -5.102677 -9.279376 -1.120951 9.456698 -0.457760 -0.040889 2.321902 0.002226 4.470567 31.860541 -3.970884 -3.505243 -19.495380 11.263837 9.302032 -17.795575 -3.250817 2.119270 9.562417 0.144086 
